<?xml version="1.0" encoding="UTF-8" standalone="no"?>
<!-- Created with Inkscape (http://www.inkscape.org/) -->

<svg
   width="181mm"
   height="181mm"
   viewBox="0 0 181 181"
   version="1.1"
   id="svg1"
   xml:space="preserve"
   inkscape:version="1.4.2 (f4327f4, 2025-05-13)"
   sodipodi:docname="logo.svg"
   inkscape:export-filename="rajz4.png"
   inkscape:export-xdpi="96"
   inkscape:export-ydpi="96"
   xmlns:inkscape="http://www.inkscape.org/namespaces/inkscape"
   xmlns:sodipodi="http://sodipodi.sourceforge.net/DTD/sodipodi-0.dtd"
   xmlns="http://www.w3.org/2000/svg"
   xmlns:svg="http://www.w3.org/2000/svg"><sodipodi:namedview
     id="namedview1"
     pagecolor="#ffffff"
     bordercolor="#000000"
     borderopacity="0.25"
     inkscape:showpageshadow="2"
     inkscape:pageopacity="0.0"
     inkscape:pagecheckerboard="0"
     inkscape:deskcolor="#d1d1d1"
     inkscape:document-units="mm"
     inkscape:zoom="1.6168981"
     inkscape:cx="104.21189"
     inkscape:cy="313.87259"
     inkscape:window-width="3840"
     inkscape:window-height="2054"
     inkscape:window-x="-11"
     inkscape:window-y="-5"
     inkscape:window-maximized="1"
     inkscape:current-layer="layer1" /><defs
     id="defs1" /><g
     inkscape:label="Réteg 1"
     inkscape:groupmode="layer"
     id="layer1"><path
       style="fill:#000000;stroke:#cccccc;stroke-opacity:1"
       d="m 88.5,166 c -1.6,-0.8 -9.3,-5.4 -13.5,-8.2 -7.7,-5.1 -13.1,-9.4 -18.3,-14.5 -9.1,-8.9 -15.2,-18.2 -17.7,-27.2 -0.2,-0.9 -0.6,-2.1 -0.7,-2.7 -0.2,-1 -0.3,-1.2 -0.6,-1.2 -0.5,-0.1 -4.3,0.7 -5.9,1.2 -1.1,0.3 -2,1.1 -3.5,2.9 l -0.4,0.5 -4.4,-1.4 c -2.4,-0.8 -5.5,-1.7 -6.8,-2.1 -2.4,-0.6 -2.4,-0.6 -3.9,-0.4 -3.3,0.5 -4.6,0.2 -6.1,-1.7 -0.8,-1.1 -1.2,-2.3 -1.9,-7 -0.4,-2.2 -1,-5.9 -1.3,-8.3 -0.4,-2.3 -0.9,-5.2 -1.1,-6.3 -0.2,-1.2 -0.7,-4.2 -1.2,-6.7 -1,-5.5 -1.1,-7.9 -0.4,-9.3 0.6,-1.2 1.6,-2.3 2.9,-2.9 1.2,-0.5 2.2,-0.7 9.8,-1.4 2.6,-0.2 6.3,-0.6 8.3,-0.8 4.6,-0.4 9.8,-0.8 13.9,-1 1.8,-0.1 3.3,-0.2 3.3,-0.2 0,-0 -0,-0.7 -0.1,-1.4 -0.6,-4.6 -1.4,-14.4 -1.4,-17.4 0,-2.1 0.3,-3.3 0.9,-4.3 0.5,-0.8 1.2,-1.3 2.9,-1.8 3.8,-1.3 9.6,-4.1 13.6,-6.4 1.6,-0.9 5.7,-3.7 12,-8 5.1,-3.5 8.7,-5.4 13.1,-6.8 4.1,-1.3 5.3,-1.5 10.4,-1.5 4,-0 4.7,0 6.3,0.4 6.6,1.4 11.1,3.8 20.7,10.6 4.2,3 8.8,5.9 12.3,7.7 2.7,1.4 7.5,3.5 9.1,4 1.2,0.4 2.3,1 3,1.7 1.5,1.7 1.6,3.6 0.3,17.1 -0.3,3.2 -0.5,5.9 -0.4,6 0.1,0.1 1.3,0.2 2.7,0.3 7.6,0.4 24.1,1.9 29.2,2.6 2.9,0.4 4,0.8 5.2,1.9 0.9,0.8 1.7,2.4 1.9,4 0.2,1.2 0.3,0.6 -1.3,11 -1.6,10.7 -3,19.8 -3.3,21.2 -0.3,1.8 -1.1,3.4 -2,4.1 -1.5,1.2 -2.7,1.3 -5.5,0.9 -2.2,-0.4 -3.9,0 -11.6,2.4 -2.2,0.7 -4.2,1.3 -4.3,1.3 -0.2,0.1 -0.6,-0.3 -1.2,-1.1 -1.1,-1.3 -1.8,-1.9 -3.1,-2.3 -1,-0.3 -5.5,-1.3 -6.4,-1.4 -0.6,-0.1 -0.6,-0.1 -0.8,0.8 -0.6,3.8 -3.1,9.7 -6,14.5 -6.6,10.9 -16.4,20.7 -29.8,29.7 -6.9,4.6 -14.7,9.3 -15.6,9.3 -0.2,-0 -0.8,-0.2 -1.3,-0.4 z m 4,-4.7 c 10.4,-6 19,-12.2 26.4,-18.9 7.7,-7.1 14.3,-16.2 17.4,-24.1 0.8,-2.2 1.8,-5.7 1.8,-6.6 0,-0.4 -0.1,-0.5 -0.5,-0.5 -0.5,0 -0.5,0 -0.8,1.6 -0.9,4.6 -4,11 -8.1,16.9 -6.6,9.2 -16.8,18.3 -29.9,26.5 -4.2,2.6 -8.8,5.3 -9.1,5.3 -0.3,0 -3.6,-1.9 -7.5,-4.2 -19.2,-11.7 -32.8,-25.5 -38.3,-39.2 -1.1,-2.6 -1.4,-3.8 -1.7,-5.5 -0.1,-0.8 -0.3,-1.4 -0.3,-1.4 -0.1,0 -0.3,0 -0.5,0 -0.4,0 -0.4,0.1 -0.3,1.1 0.3,2.7 1.8,6.9 4,11 6.3,11.8 18.1,23.4 34,33.3 4.8,3 10.4,6.2 10.6,6.1 0,-0 1.2,-0.7 2.6,-1.5 z m -4.4,-18.5 c 0.7,-0.5 1.3,-0.9 1.4,-0.9 0.1,0 0.8,0.4 1.5,1 0.7,0.5 1.4,1 1.5,1 0.1,0 0.1,-0.2 0,-0.5 -0.2,-1 -0.6,-2.5 -0.7,-2.7 -0.1,-0.1 0.5,-0.7 1.5,-1.4 l 1.5,-1.1 -1.8,-0.2 -1.8,-0.2 -0.7,-1.6 c -0.4,-0.9 -0.8,-1.6 -0.8,-1.6 -0.1,0 -0.2,0.2 -0.2,0.4 -0.1,0.2 -0.3,0.9 -0.6,1.6 l -0.5,1.2 h -1.8 c -1,0 -1.8,0.1 -1.8,0.2 0,0.2 2.2,1.9 2.5,2 0.1,0 0,0.5 -0.2,1.3 -0.5,1.7 -0.7,2.6 -0.4,2.4 0.1,-0.1 0.8,-0.5 1.5,-1 z m 4.2,-10.6 c 0.2,-1 0.8,-1.8 2.6,-3.1 3,-2.3 4.3,-3.9 4.8,-6.2 0.8,-3.9 -1.7,-7.5 -6.1,-8.9 -1,-0.3 -1.6,-0.4 -3.6,-0.4 -2.1,0 -2.5,0.1 -3.8,0.5 -2.4,0.8 -4.1,1.9 -5.7,3.8 -0.6,0.7 -0.9,1.2 -0.8,1.3 0.2,0.3 4.5,4.3 4.6,4.3 0.1,0 0.2,-0.3 0.3,-0.6 0.3,-0.8 1.5,-2.2 2.3,-2.6 0.9,-0.5 2.5,-0.5 3.4,0 0.9,0.4 1.3,1.2 1.3,2.3 -0,1 -0.4,1.5 -1.8,2.8 -2,1.8 -2.7,2.9 -2.8,4.7 -0.1,2.1 -0,2.6 0.4,2.7 0.2,0.1 1.3,0.1 2.5,0.1 l 2.1,-0 z m -38.7,-14 c 1.2,-1.1 3.2,-2.9 4.6,-4.1 l 2.4,-2.2 -1.4,0.1 c -3.1,0.3 -10.2,1.4 -11.3,1.9 l -0.4,0.2 0.4,0.9 c 0.4,1 2.2,4.8 2.6,5.4 0.3,0.4 0.3,0.4 0.6,0.1 0.2,-0.2 1.3,-1.2 2.5,-2.3 z m 76,0.4 c 0.5,-0.9 1.1,-2.2 1.4,-3 l 0.6,-1.4 -0.4,-0.2 c -1.3,-0.5 -7.4,-1.6 -11.4,-2 l -0.8,-0.1 0.8,0.7 c 0.9,0.7 6.1,5.3 7.7,6.7 0.6,0.5 1.1,0.9 1.2,0.9 0.1,0 0.5,-0.7 1,-1.6 z m 41.5,-7.4 c 0.9,-0.3 1.7,-1 2.1,-1.7 0.3,-0.6 0.8,-3.1 1.5,-7.8 0.2,-1.1 0.7,-4.6 1.1,-7.8 0.5,-3.2 1.1,-7.9 1.5,-10.2 0.9,-6 0.9,-6.9 0.5,-8 -0.5,-1 -0.9,-1.6 -1.8,-2 -1.8,-0.9 -24.2,-3 -42,-4 -16.3,-0.9 -32.5,-1.2 -48.5,-1.1 -12.7,0.1 -17.2,0.2 -30.3,0.7 -6.7,0.3 -8.3,0.3 -17.7,0.9 -12.2,0.7 -30.5,2.3 -32.7,2.9 -0.8,0.2 -1.6,1.1 -2,2 -0.4,0.9 -0.3,2 0.1,4.5 0.2,1.1 1.3,8 2.6,15.1 1.2,7.2 2.3,13.4 2.5,13.8 0.4,1.1 1,1.9 2,2.3 0.7,0.4 1,0.4 2.5,0.3 0.9,-0.1 3,-0.3 4.6,-0.5 3.8,-0.5 11,-1.2 15.4,-1.5 1.9,-0.2 4.8,-0.4 6.4,-0.5 20.3,-1.8 59.1,-2.2 86.7,-0.9 13.1,0.6 29.4,1.9 39,3.1 3.6,0.4 5.4,0.7 5.8,0.7 0.2,0 0.6,-0.1 0.9,-0.2 z m -3.5,-1 c -4.9,-0.8 -25.4,-2.6 -38.3,-3.3 -22,-1.2 -54.8,-1.3 -77.1,-0.2 -11.1,0.6 -27.8,2 -38.5,3.3 -2.4,0.3 -2.5,0.3 -3.3,-0 -1,-0.4 -1.6,-1.1 -1.9,-2.5 -0.1,-0.6 -0.8,-4.1 -1.4,-7.9 -1.3,-7.7 -3.3,-20 -3.6,-21.4 -0.4,-2.1 -0.1,-3.3 1,-4 1.5,-0.9 21.3,-2.6 43.5,-3.7 3,-0.2 14.6,-0.6 21.7,-0.8 8.6,-0.3 33.7,-0.3 42.2,-0 12.7,0.4 22.8,0.9 29.9,1.4 7.3,0.5 15.3,1.1 19.1,1.5 3.9,0.4 13.7,1.5 14.4,1.7 0.6,0.1 1.6,1.3 1.8,2.1 0.2,0.8 0.1,2.4 -0.9,8.9 -0.3,1.9 -1,6.5 -1.5,10.1 -2,13.7 -2,13.8 -3.3,14.6 -0.5,0.3 -0.8,0.4 -1.8,0.4 -0.6,-0 -1.6,-0.1 -2,-0.2 z M 13.3,102.8 c 2.2,-0.4 2,0.2 2,-4.1 0,-3.5 0,-3.9 0.4,-4.6 0.2,-0.4 0.4,-0.8 0.5,-0.9 0.1,-0 0.4,0.8 0.8,1.9 1,3 2.3,6.5 2.5,6.7 0.2,0.2 4.1,-0.3 4.3,-0.5 0.2,-0.3 0,-0.7 -3.9,-10.9 -0.6,-1.6 -0.9,-2.5 -0.8,-2.8 0.1,-0.2 0.5,-1.4 1.1,-2.5 1.5,-3.3 3.1,-6.9 3.2,-7.4 l 0.1,-0.4 -1.9,0.1 c -1.1,0.1 -2.1,0.2 -2.2,0.2 -0.2,0.1 -0.9,1.4 -2.1,4 -1,2.1 -1.8,4 -1.9,4.3 -0.3,1 -0.3,0.1 -0.3,-3.8 l 0.1,-4.3 -1.3,0.1 c -0.7,0.1 -1.7,0.2 -2.1,0.2 l -0.9,0.1 0.1,12.3 c 0.1,6.8 0.2,12.3 0.2,12.4 0.1,0.2 0.8,0.2 2.2,-0.1 z m 157.8,-1.1 1.2,-1.3 0,-7.4 c 0,-4 0,-8.2 0.1,-9.3 l 0.1,-1.9 -1,-1.6 c -0.6,-0.9 -1.2,-1.7 -1.3,-1.8 -0.2,-0.2 -4.4,-0.7 -5.6,-0.7 -0.2,-0 -0.8,0.6 -1.5,1.4 l -1.2,1.4 v 9.6 9.6 l 1.1,1.5 1.1,1.5 2.4,0.3 c 3.7,0.4 3.3,0.5 4.7,-1 z m -3.4,-3.4 c -0.3,-0 -1,-0.1 -1.4,-0.2 l -0.7,-0.1 v -7.8 -7.8 h 0.4 c 0.2,0 0.9,0.1 1.5,0.1 l 1.1,0.1 v 7.9 c 0,4.4 -0.1,7.9 -0.1,7.9 -0.1,-0 -0.4,-0.1 -0.7,-0.1 z m -8.1,1.3 0.5,-0.7 v -9.2 -9.2 l -1.2,-1.7 -1.2,-1.7 -0.9,-0.1 c -2,-0.2 -8.1,-0.6 -8.2,-0.5 -0.1,0.1 -0.2,5.1 -0.2,12.3 v 12.2 l 0.4,0.1 c 0.2,0 1.7,0.2 3.4,0.3 1.6,0.1 3.5,0.3 4.1,0.3 l 1.1,0.1 0.8,-0.8 c 0.4,-0.4 1,-1.1 1.3,-1.5 z m -6.2,-2.5 c -0.8,-0.1 -0.9,-0.1 -0.8,-0.3 0.1,-0.1 0.1,-3.7 0.1,-8 v -7.7 l 1.6,0.1 c 0.9,0.1 1.7,0.2 1.7,0.2 0.1,0.1 0.1,3.6 0.1,7.9 l 0,7.8 -0.9,-0 c -0.5,-0 -1.3,-0.1 -1.8,-0.1 z M 31.2,101.1 c 1.3,-0.1 1.6,-0.2 1.7,-0.4 0,-0.2 0.4,-2.3 0.8,-4.9 0.4,-2.5 0.9,-5.5 1.1,-6.6 0.2,-1.1 0.6,-3.8 1,-6 0.3,-2.2 0.7,-4.4 0.8,-4.9 0.1,-0.5 0.2,-1.2 0.2,-1.5 v -0.5 l -2,0.1 c -1.1,0.1 -2,0.2 -2.1,0.2 -0,0 -0.4,2.5 -0.8,5.3 -0.4,2.9 -0.9,6.1 -1.1,7.2 -0.2,1.1 -0.3,2 -0.4,1.9 -0,-0 -0.4,-2 -0.7,-4.4 -0.7,-5 -1.3,-8.9 -1.4,-9.5 -0.1,-0.4 -0.5,-0.5 -3,-0.3 -1.3,0.1 -1.3,0.1 -1.3,0.6 0,0.5 0.3,2 2.2,11.9 0.9,4.8 2.2,11.6 2.2,11.8 0,0.1 0.3,0.1 0.6,-0 0.3,-0.1 1.3,-0.2 2.2,-0.2 z M 146.3,88.5 V 76.2 l -1.2,-0.1 c -0.7,-0.1 -1.6,-0.1 -2,-0.1 l -0.8,-0 0.1,6.1 c 0,3.3 0,6 -0,6 -0.1,-0.1 -0.6,-1.4 -1.1,-3 -2.5,-7.3 -3.2,-9.1 -3.4,-9.2 -0.1,-0.1 -0.9,-0.1 -1.8,-0.1 l -1.6,0 0,12.2 c 0,6.7 0.1,12.3 0.1,12.3 0,0 0.9,0.1 2,0.2 l 1.9,0.1 v -5.9 c 0,-3.6 0.1,-5.8 0.2,-5.7 0.1,0.1 1,2.6 1.9,5.6 1,3 1.8,5.6 1.9,5.7 0.1,0.3 1.2,0.4 3.2,0.5 l 0.7,0 z M 41.3,100.2 c 0.2,-0.1 0.2,-2.7 0.2,-12.2 l -0,-12 -1.8,0.1 c -1,0 -1.8,0.1 -1.9,0.1 -0.1,0 -0.1,5.5 -0.1,12.2 v 12.1 l 1.7,-0.1 c 0.9,-0.1 1.8,-0.2 1.9,-0.3 z m 7.2,-0.3 c 2.2,-0.1 4.2,-0.2 4.5,-0.3 0.4,-0.1 0.4,-0.1 0.4,-2.2 v -2.1 h -2.9 c -2.3,0 -2.9,-0 -2.8,-0.2 0.1,-0.3 2.6,-8 4.2,-13 1.4,-4.6 2,-6.4 1.9,-6.5 -0.1,-0.1 -5,0.1 -8.5,0.3 l -2,0.1 v 2.2 c 0,1.2 0.1,2.2 0.1,2.2 0.1,0 1.2,-0 2.5,-0.1 1.3,-0.1 2.4,-0.1 2.4,-0.1 0.1,0.1 -1.1,3.8 -2.6,8.3 l -2.7,8.2 0.1,1.7 c 0.1,0.9 0.2,1.7 0.2,1.8 0.1,0.1 0.3,0.1 0.6,0.1 0.3,-0.1 2.4,-0.2 4.6,-0.3 z m 84.6,-0.4 c -0,-0.3 -0.1,-1.3 -0.3,-2.2 -0.3,-1.8 -2.2,-13.6 -2.9,-18.5 -0.3,-1.8 -0.5,-3.4 -0.6,-3.4 -0,-0 -1.2,-0.1 -2.5,-0.2 l -2.5,-0.1 -0.6,3.3 c -1.4,7.9 -3.4,20 -3.4,20.5 l -0,0.6 1.8,0.1 c 1,0.1 1.8,0.1 1.9,-0 0.1,-0.1 0.3,-0.9 0.4,-1.7 0.2,-0.9 0.3,-1.7 0.3,-1.8 0.1,-0.2 0.7,-0.2 2.8,0 l 0.9,0.1 0.3,1.8 c 0.2,1 0.3,1.8 0.4,1.9 0.1,0.1 3.5,0.3 3.7,0.3 0.1,-0 0.1,-0.3 0.1,-0.6 z m -7.5,-8.5 c 0.1,-0.4 0.3,-2.1 0.6,-3.8 0.3,-1.7 0.5,-3 0.6,-2.8 0.1,0.1 0.3,1.6 0.5,3.3 0.2,1.6 0.4,3.3 0.5,3.6 l 0.1,0.6 h -1.2 -1.2 z m -6.5,8.5 c 0,-0.1 0.1,-5.6 0.1,-12.3 l 0,-12.2 -2.3,-0 -2.3,-0 -1.4,5.5 c -0.8,3 -1.4,5.7 -1.4,5.8 0,0.2 -0.1,0.3 -0.1,0.4 -0.1,0 -0.5,-1.2 -0.9,-2.9 -0.4,-1.6 -1.1,-4.3 -1.6,-6 l -0.8,-3 h -2.2 -2.2 v 12.1 12.1 l 1.9,0.1 c 1,0.1 1.9,0.1 2,0 0.1,-0.1 0.1,-2.4 0.1,-5.3 -0,-4.9 0.1,-6 0.4,-4.3 0.2,1.4 1.9,8.3 2,8.5 0.1,0.1 0.6,0.1 1.3,0.1 l 1.1,-0.1 0.7,-2.7 c 0.4,-1.5 0.8,-3.6 1.1,-4.6 0.2,-1 0.4,-1.9 0.5,-2 0.1,-0.1 0.1,2.3 0.1,5.2 v 5.3 l 1.4,0.1 c 0.8,0.1 1.6,0.1 1.9,0.1 0.3,0 0.5,-0 0.6,-0.1 z m -49,-1.7 1.3,-1.5 -0,-2.5 -0,-2.5 -1.9,0 c -2.3,0 -2.2,-0.1 -2.2,2.1 l -0,1.3 -1.4,0.1 c -0.8,0.1 -1.5,0.1 -1.5,0.1 -0,-0 -0.1,-3.5 -0.1,-7.6 l -0,-7.6 1.6,-0.1 1.6,-0.1 v 2.2 2.2 l 1.9,-0.1 c 1.1,-0 2,-0.1 2.1,-0.1 0.1,-0 0.1,-1.3 0.1,-2.9 v -2.8 l -1.3,-1.5 -1.3,-1.5 -3,0 c -2.3,0 -3,0.1 -3.3,0.3 -0.2,0.1 -0.8,0.8 -1.4,1.5 l -1.1,1.2 v 9.3 9.3 l 1.2,1.4 1.2,1.4 3.1,-0 3.1,-0 z m 13.5,-0.1 1.3,-1.5 v -9.1 -9.1 l -1.4,-1.7 -1.4,-1.7 -0.7,0.1 c -0.4,0 -1.9,0.1 -3.3,0.1 l -2.6,0 -1.2,1.5 -1.2,1.5 v 9.3 9.3 l 1.4,1.4 1.4,1.4 h 3.3 3.3 z m -6.3,-3 c -0,-0 -0.1,-3.5 -0,-7.8 l 0,-7.7 1.6,0.1 1.6,0.1 0,7.7 0,7.7 h -1.6 c -0.9,0 -1.7,-0 -1.7,-0.1 z m 13.7,3.9 c 0.1,-0.3 0.1,-2.6 0.1,-5.1 -0,-2.5 -0,-4.5 0,-4.5 0.1,0 0.3,1 0.6,2.2 1.3,5.9 1.5,6.8 1.7,6.9 0.1,0.1 0.7,0.1 1.2,0.2 0.8,0 1.1,-0 1.2,-0.3 0.1,-0.2 0.6,-2.2 1.1,-4.5 0.5,-2.3 1,-4.3 1.1,-4.5 0.1,-0.2 0.2,1.8 0.2,4.9 l 0,5.2 h 1.9 c 1.9,0 1.9,-0 2,-0.4 0.1,-0.2 0.1,-5.7 0,-12.1 l -0,-11.7 -2.2,-0.1 c -1.7,-0.1 -2.2,-0.1 -2.4,0.1 -0.2,0.2 -2.9,11.2 -2.9,11.8 0,1.1 -0.4,-0.4 -1.7,-5.5 -0.8,-3.2 -1.5,-6 -1.5,-6.2 -0.1,-0.4 -0.2,-0.4 -2.3,-0.4 l -2.2,0 -0,12 c -0,6.6 -0,12.1 0,12.2 0.1,0.2 0.6,0.2 2,0.2 h 1.9 z M 172.2,77 c 0,-0.3 0.1,-0.5 0.2,-0.5 0.1,0 0.3,0.2 0.3,0.5 0.1,0.6 0.4,0.7 0.5,0.1 0.1,-0.2 0.2,-0.4 0.4,-0.4 0.2,0 0.3,0.2 0.3,0.4 0,0.2 0.1,0.4 0.2,0.4 0.1,0 0.2,-0.1 0.2,-0.3 0,-0.2 0,-0.5 0.1,-0.7 0.1,-0.3 -0,-0.4 -1.6,-0.5 -0.9,-0.1 -1.7,-0.1 -1.8,-0.1 -0,0.1 0.1,0.2 0.4,0.4 0.3,0.2 0.4,0.4 0.3,0.7 -0.1,0.3 -0,0.4 0.2,0.4 0.2,0 0.3,-0.2 0.3,-0.5 z M 7.8,76.5 c 0,-0.4 0.1,-0.5 0.3,-0.5 0.2,0 0.3,0.2 0.3,0.4 0,0.3 0.1,0.4 0.3,0.4 0.1,0 0.3,-0.1 0.3,-0.2 0,-0.1 0,-0.4 0.1,-0.7 l 0.1,-0.5 -1.3,0.1 c -0.9,0 -1.3,0.1 -1.3,0.3 0,0.1 0.2,0.2 0.4,0.1 0.4,-0.1 0.4,-0 0.4,0.5 0,0.4 0.1,0.5 0.3,0.5 0.2,0 0.3,-0.2 0.3,-0.5 z m 2.4,0 c 0.1,-0.1 0.2,-0.3 0.2,-0.6 0,-0.4 -0,-0.5 -0.5,-0.5 -0.5,0 -0.5,0.1 -0.5,0.5 0,0.4 0.2,0.7 0.5,0.7 0,0 0.2,-0 0.3,-0.1 z m 30.6,-2.9 c 0.4,-0.5 0.7,-1 0.7,-1 0,-0.1 -0.5,-0.1 -1,-0.1 l -1,0.1 -0.6,1 c -0.3,0.5 -0.5,1 -0.5,1.1 0,0.1 0.4,0.1 0.9,0 0.8,-0.1 0.9,-0.1 1.5,-1 z m 2.2,-7.5 c -0.2,-1.6 -0.5,-3.7 -0.7,-6.7 -0.8,-10.1 -0.8,-12.6 0,-13 0.2,-0.1 1.3,-0.5 2.5,-0.9 3,-1.1 5.7,-2.3 9,-3.9 4.2,-2.1 7.3,-4.1 13.4,-8.4 8.9,-6.3 13.8,-8.4 21.2,-9.1 3.6,-0.3 7.5,0.2 11.7,1.7 4.3,1.5 6.9,3.1 15.2,8.9 4.1,2.9 7.8,5.1 11.6,7.1 4,2 5.2,2.5 8.6,3.8 2.7,1 2.7,1 3,1.7 0.2,0.7 0.1,3.6 -0.3,8.7 -0.1,1 -0.3,3.4 -0.4,5.3 -0.1,1.9 -0.3,3.9 -0.4,4.5 l -0.1,1 h 0.5 c 0.6,0 0.5,0.6 1.2,-7.1 0.9,-10.7 0.9,-11.1 0.7,-12.2 -0.3,-1.6 -0.5,-1.7 -2.7,-2.5 -2.1,-0.7 -6.4,-2.5 -8.5,-3.6 -4.2,-2.1 -8.2,-4.5 -13.6,-8.4 -5.7,-4 -7.8,-5.3 -10.5,-6.7 -5.4,-2.6 -11,-3.8 -15.8,-3.4 -7.7,0.7 -13.2,3.1 -21.8,9.3 -8.2,5.9 -14.9,9.6 -22.1,12.2 -3.3,1.2 -3.1,1.1 -3.4,1.8 -0.5,1.1 -0.5,1.4 -0.5,3.1 0,2.3 1.1,16.5 1.3,17.2 0,0.1 0.3,0.2 0.6,0.2 0.5,0 0.5,-0 0.4,-0.7 z m 8.4,0.3 c 5.7,-0.3 19.8,-0.7 30.4,-0.8 11.8,-0.1 41.1,0.3 49.8,0.7 l 0.9,0 0.2,-2.4 c 0.3,-3.8 1.1,-13.1 1.1,-13.5 0,-0.3 -0.4,-0.5 -1.7,-1 -0.9,-0.4 -2.1,-0.9 -2.7,-1.1 -0.5,-0.2 -1,-0.4 -1,-0.4 -0,0 -1.4,-0.7 -3,-1.5 -4.9,-2.4 -9.2,-5.1 -14.9,-9.1 -6.9,-4.9 -10.4,-6.6 -14.8,-7.7 -4.3,-1 -7.5,-1 -12,0.2 -4,1 -6.8,2.4 -12.9,6.6 -10.1,6.9 -15.6,10 -22.7,12.9 l -1.9,0.8 v 0.8 c 0,0.4 0.1,1.5 0.2,2.4 0.1,0.9 0.4,4 0.6,6.9 0.2,2.9 0.5,5.5 0.5,5.9 0.1,0.7 -0.2,0.6 3.9,0.4 z m 37.9,-3 c -1.5,-0.3 -2.4,-1.9 -2.4,-4.4 -0,-1.8 -0.2,-1.7 2.9,-1.7 h 2.7 v 2.1 c 0,2.2 -0.2,3 -0.8,3.6 -0.5,0.4 -1.6,0.6 -2.5,0.5 z m -2.1,-10.4 c 0.1,-1.2 0.2,-2.2 0.4,-2.6 0.4,-0.8 1.6,-1.8 3.5,-2.9 0.9,-0.5 1.8,-1.1 2,-1.4 1.2,-1.3 1,-3.5 -0.5,-4.3 -0.8,-0.5 -2.7,-0.4 -3.5,0 -0.8,0.5 -1.4,1.4 -1.4,2.2 v 0.7 h -2.3 c -2.6,0 -2.5,0.1 -2.3,-1.8 0.5,-3.7 3.5,-6.1 7.9,-6.1 3.6,0 6.1,1.5 7.5,4.4 0.5,1 0.5,1.3 0.5,2.9 0,1.5 -0.1,1.9 -0.5,2.8 -0.7,1.4 -1.9,2.6 -4,4 -2,1.3 -2.2,1.6 -2.2,3.3 l -0,0.7 h -2.7 -2.7 z"
       id="path1" /></g></svg>
